<svg version="1.1" id="Layer_1" xmlns="http://www.w3.org/2000/svg" xmlns:xlink="http://www.w3.org/1999/xlink" viewBox="0 0 393.568 393.568" xml:space="preserve" width="64px" height="64px" fill="#000000"><g id="SVGRepo_bgCarrier" stroke-width="0"></g><g id="SVGRepo_tracerCarrier" stroke-linecap="round" stroke-linejoin="round"></g><g id="SVGRepo_iconCarrier"> <circle style="fill:#ffccdb;" cx="196.784" cy="196.784" r="196.784"></circle> <path style="fill:#646B79;" d="M289.552,33.552H104.016c-5.236,0-9.438,4.202-9.438,9.438v308.105c0,5.236,4.202,9.438,9.438,9.438 h185.212c5.236,0,9.438-4.202,9.438-9.438V42.731C298.731,37.754,294.529,33.552,289.552,33.552z"></path> <rect x="100.913" y="61.349" style="fill:#6EB1E1;" width="191.547" height="257.81"></rect> <g> <path style="fill:#4F5565;" d="M209.907,46.416h-26.182c-1.293,0-2.327,1.034-2.327,2.327c0,1.293,1.034,2.327,2.327,2.327h26.44 c1.293,0,2.327-1.034,2.327-2.327C212.234,47.451,211.2,46.416,209.907,46.416z"></path> <circle style="fill:#4F5565;" cx="196.784" cy="339.071" r="13.64"></circle> <circle style="fill:#4F5565;" cx="238.416" cy="274.36" r="13.123"></circle> </g> <circle style="fill:#F1F3F7;" cx="238.416" cy="274.36" r="6.271"></circle> <circle style="fill:#4F5565;" cx="191.289" cy="274.36" r="13.123"></circle> <circle style="fill:#F1F3F7;" cx="191.289" cy="274.36" r="6.271"></circle> <path style="fill:#F0582F;" d="M119.208,156.962c-2.651,0-4.719,2.069-4.719,4.719c0,2.651,2.069,4.719,4.719,4.719h13.64v-9.438 L119.208,156.962L119.208,156.962z"></path> <path style="fill:#FCFCFD;" d="M258.327,229.43l20.752-42.861H154.958l-12.606-26.958c-0.776-1.552-2.327-2.651-4.202-2.651h-5.236 v9.438h2.069l32.517,68.913c0.776,1.552,2.327,2.651,4.202,2.651h81.455c2.909,0,5.495,2.327,5.495,5.495 c0,2.909-2.327,5.495-5.495,5.495h-80.743c-2.651,0-4.719,2.069-4.719,4.719c0,2.65,2.069,4.719,4.719,4.719h80.679 c8.145,0,14.933-6.529,14.933-14.933C268.024,237.123,263.952,231.628,258.327,229.43z M159.289,196.008h104.533l-15.386,32.453 h-73.956L159.289,196.008z"></path> <path style="fill:#F0582F;" d="M100.913,61.349v52.687c0,10.473,8.663,19.135,19.135,19.135s19.135-8.663,19.135-19.135V61.349 H100.913z"></path> <path style="fill:#F1F3F7;" d="M139.378,61.349v52.687c0,10.473,8.663,19.135,19.135,19.135s19.135-8.663,19.135-19.135V61.349 H139.378z"></path> <g> <path style="fill:#F0582F;" d="M177.648,61.349v52.687c0,10.473,8.663,19.135,19.135,19.135c10.473,0,19.135-8.663,19.135-19.135 V61.349H177.648z"></path> <path style="fill:#F0582F;" d="M254.19,61.349v52.687c0,10.473,8.663,19.135,19.135,19.135c10.473,0,19.135-8.663,19.135-19.135 V61.349H254.19z"></path> </g> <path style="fill:#F1F3F7;" d="M215.919,61.349v52.687c0,10.473,8.663,19.135,19.135,19.135s19.135-8.663,19.135-19.135V61.349 H215.919z"></path> </g></svg>