<svg version="1.1" id="_x36_" xmlns="http://www.w3.org/2000/svg" xmlns:xlink="http://www.w3.org/1999/xlink" viewBox="0 0 512 512" xml:space="preserve" width="64px" height="64px" fill="#000000"><g id="SVGRepo_bgCarrier" stroke-width="0"></g><g id="SVGRepo_tracerCarrier" stroke-linecap="round" stroke-linejoin="round"></g><g id="SVGRepo_iconCarrier"> <g> <g> <path style="fill:none;" d="M403.72,106.039c0.773,9.323,3.523,16.326,7.705,19.911c4.986-7.118,4.306-16.997-2.052-23.354 c-1.732-1.732-3.726-3.039-5.854-3.929C403.461,101.2,403.523,103.665,403.72,106.039z"></path> <path style="fill:none;" d="M445.681,111.442c6.341-7.566,12.474-17.535,17.456-29.767c13.586-33.356,9.583-62.089-2.506-67.013 c-1.357-0.553-2.845-0.833-4.424-0.833c-12.137,0-31.749,16.481-44.191,47.024c-0.902,2.215-1.728,4.433-2.492,6.648 c18.417,2.497,30.689,4.255,30.689,4.255S442.559,88.131,445.681,111.442z"></path> <path style="fill:none;" d="M389.687,98.557c-2.227,0.891-4.315,2.236-6.119,4.04c-7.126,7.126-7.126,18.679,0,25.805 c4.317,4.317,10.258,6.014,15.856,5.1c-5.279-6.122-8.563-15.102-9.493-26.319C389.7,104.396,389.623,101.512,389.687,98.557z"></path> <path style="fill:#F8F1C3;" d="M423.01,142.217l-5.999,5.923c-9.112,9.187-24.146,9.187-33.333,0l-19.894-19.893 c-9.187-9.187-9.187-24.147,0-33.334l29.613-29.612c0.684,0.152,1.443,0.226,2.202,0.304c-3.645,11.312-5.695,22.627-5.922,32.952 c-2.202,0.912-4.328,2.202-6.074,4.025c-7.137,7.137-7.137,18.678,0,25.817c4.252,4.327,10.25,5.997,15.793,5.087 c2.809,3.189,6.075,5.619,9.871,7.213c3.037,1.214,6.302,1.822,9.643,1.822C420.276,142.521,421.643,142.445,423.01,142.217z"></path> <path style="fill:#F8F1C3;" d="M351.846,140.203l19.921,19.921c9.166,9.166,24.164,9.166,33.33,0l17.89-17.89l0,0l-5.941,5.941 c-9.166,9.166-24.164,9.166-33.33,0l-19.921-19.921c-9.165-9.165-9.166-24.163-0.001-33.329l-11.948,11.948 C342.681,116.039,342.681,131.037,351.846,140.203z"></path> <path style="fill:#d1d1d1;" d="M475.934,86.864c-7.137,17.54-17.084,32.196-27.942,42.066c-0.456-3.568-0.911-6.985-1.367-10.325 c-0.304-2.43-0.608-4.861-0.911-7.137c6.302-7.593,12.453-17.54,17.388-29.766c13.591-33.408,9.643-62.11-2.506-67.045 c-1.291-0.532-2.809-0.836-4.404-0.836c-12.149,0-31.739,16.476-44.191,47c-0.911,2.278-1.747,4.481-2.506,6.683 c-4.328-0.608-8.96-1.216-13.895-1.898c1.063-3.342,2.278-6.683,3.569-9.947C412.532,22.855,435.994,0,456.192,0 c1.594,0,3.189,0.152,4.632,0.38c1.746,0.304,3.417,0.758,5.011,1.442c7.973,3.264,13.819,10.403,16.933,20.501 c1.215,3.873,2.05,8.277,2.43,12.984C486.488,50.797,483.223,69.097,475.934,86.864z"></path> <path style="fill:#9B8E84;" d="M411.425,125.951c-4.182-3.585-6.932-10.588-7.705-19.911c-0.197-2.374-0.259-4.84-0.201-7.372 c-4.411-1.845-9.398-1.883-13.832-0.11c-0.064,2.955,0.013,5.839,0.244,8.626c0.93,11.217,4.214,20.197,9.493,26.319 c3.643-0.594,7.141-2.291,9.95-5.1C410.142,127.633,410.822,126.811,411.425,125.951z"></path> <path style="fill:#ECE5BB;" d="M446.633,118.587c-0.324-2.445-0.642-4.828-0.952-7.145c-3.122-23.311-5.467-39.685-5.467-39.685 s-12.272-1.758-30.689-4.255c-3.723,10.798-5.783,21.497-6.005,31.166c2.128,0.89,4.122,2.197,5.854,3.929 c6.358,6.358,7.038,16.237,2.052,23.354c-0.603,0.86-1.283,1.683-2.052,2.451c-2.809,2.809-6.307,4.506-9.95,5.1 c2.764,3.205,6.074,5.627,9.88,7.177c3.022,1.231,6.267,1.855,9.644,1.855c1.333,0,2.682-0.106,4.039-0.301L446.633,118.587 L446.633,118.587L446.633,118.587z"></path> <path style="fill:#9B8E84;" d="M403.519,98.667c0.222-9.669,2.283-20.368,6.005-31.166c-4.34-0.589-9.019-1.218-13.962-1.875 c-3.645,11.319-5.652,22.579-5.875,32.93C394.121,96.784,399.108,96.822,403.519,98.667z"></path> <path style="fill:#304669;" d="M459.912,268.87L228.629,500.154c-11.086,11.086-27.107,14.426-41.154,9.869 c-5.923-1.898-11.542-5.163-16.249-9.869L11.772,340.7c-4.632-4.709-7.897-10.251-9.795-16.174 c-4.556-13.972-1.215-30.068,9.795-41.154L243.055,52.089c5.087-5.089,93.622,5.771,150.342,13.212l-29.613,29.612l-11.921,11.998 c-9.188,9.111-9.188,24.145,0,33.257l19.894,19.971c9.187,9.187,24.146,9.187,33.333,0l17.92-17.92l23.614-23.613 c0.455,3.341,0.911,6.757,1.367,10.325C455.356,185.421,464.696,264.086,459.912,268.87z"></path> <rect x="418.089" y="130.41" transform="matrix(0.7071 -0.7071 0.7071 0.7071 35.1391 345.654)" style="fill:#304669;" width="33.441" height="0"></rect> <g> <path style="fill:#FDFEFE;" d="M196.055,354.67c-1.139-3.265-3.037-6.303-5.847-9.111c-2.657-2.656-5.315-4.632-8.049-5.999 c-2.809-1.29-5.695-1.898-8.656-1.746c-2.505,0-4.935,0.532-7.365,1.518c-2.43,1.064-5.163,2.734-8.201,5.013l-7.973,5.847 c-1.443,1.062-2.733,1.822-3.949,2.276c-1.215,0.456-2.43,0.76-3.569,0.76c-1.215,0-2.278-0.228-3.189-0.682 c-0.987-0.456-1.823-1.064-2.582-1.824c-1.974-1.972-3.037-4.403-3.037-7.289c0-2.884,1.519-5.847,4.556-8.883 c1.898-1.898,4.176-3.645,6.758-5.315c2.581-1.67,5.619-2.506,9.111-2.582l0.076-14.2c-4.935,0.078-9.415,1.064-13.364,3.038 c-4.024,1.898-8.049,4.859-12.073,8.883c-3.113,3.19-5.543,6.455-7.137,9.795c-1.595,3.341-2.506,6.683-2.733,9.947 c-0.152,3.265,0.304,6.453,1.518,9.491c1.215,3.113,3.189,5.923,5.771,8.503c4.936,4.937,10.099,7.367,15.49,7.215 c2.581,0,5.163-0.532,7.745-1.594c2.506-0.988,5.315-2.582,8.277-4.784l7.973-5.847c1.67-1.29,3.037-2.126,4.024-2.582 c0.987-0.378,1.974-0.606,3.113-0.682c2.43,0,4.632,0.986,6.606,2.961c2.354,2.354,3.265,5.011,2.809,7.973 c-0.532,3.036-2.506,6.227-5.847,9.643c-2.657,2.658-5.543,4.783-8.656,6.455c-3.113,1.746-6.454,2.581-10.175,2.581v14.578 c5.695,0.078,10.858-1.062,15.414-3.417c4.48-2.278,8.96-5.695,13.363-10.023c3.037-3.036,5.467-6.301,7.365-9.717 c1.822-3.418,2.961-6.835,3.417-10.251C197.421,361.201,197.118,357.858,196.055,354.67z"></path> <path style="fill:#FDFEFE;" d="M183.602,270.465l-8.884,8.883l36.826,78.967l11.769-11.768l-6.682-13.744l20.501-20.577 l13.667,6.833l11.846-11.846L183.602,270.465z M210.254,320.123l-13.743-28.4l28.17,13.972L210.254,320.123z"></path> <path style="fill:#FDFEFE;" d="M297.27,252.468l-26.272,26.272l-47.836-47.835l-11.313,11.312l57.934,57.86l37.51-37.509 L297.27,252.468z"></path> <path style="fill:#FDFEFE;" d="M344.574,205.164l-26.879,26.804l-14.047-14.048l22.855-22.855l-10.099-10.097l-22.855,22.855 l-13.515-13.592l26.803-26.804l-10.098-10.099l-38.117,38.117l57.859,57.936l38.117-38.193L344.574,205.164z"></path> </g> </g> <path style="opacity:0.06;fill:#040000;" d="M423.01,142.219l-0.151,0.228l23.614-23.615L423.01,142.219z M422.782,142.447v0.076 h0.076v-0.076H422.782z M422.706,142.523l-5.847,5.847v0.076l5.923-5.923H422.706z M422.706,142.523l-5.847,5.847v0.076 l5.923-5.923H422.706z M485.197,35.309c-0.379-4.707-1.215-9.111-2.43-12.984c-0.532-1.67-1.215-3.036-1.822-4.555l-10.934,10.933 c3.113,12.528,1.595,31.89-7.062,53.227c-1.822,4.481-3.796,8.655-5.847,12.452c-0.075,0.228-0.227,0.38-0.227,0.532 c-0.684,1.214-1.367,2.354-1.974,3.416c-0.835,1.368-1.595,2.582-2.354,3.797c-1.139,1.746-2.278,3.34-3.417,4.935 c-0.531,0.76-1.139,1.52-1.746,2.278c-0.532,0.684-1.063,1.444-1.671,2.126c0.152,0.836,0.228,1.67,0.304,2.582 c-0.152-0.836-0.304-1.67-0.38-2.506c0,0.076,0,0.076-0.076,0.152c-3.189-23.311-5.467-39.711-5.467-39.711 s-4.328-0.608-11.693-1.67l-38.497,38.495c0.152,1.292,0.304,2.582,0.532,3.874c0.227,1.214,0.455,2.429,0.683,3.645 c0.304,1.214,0.608,2.354,0.912,3.417c0.303,1.138,0.683,2.202,1.063,3.264c0.38,1.064,0.836,2.05,1.291,3.036 c0.456,0.912,0.911,1.898,1.443,2.734c0.911,1.67,1.898,3.113,3.037,4.48c0.076,0.152,0.152,0.304,0.304,0.456 c-2.658,0.454-5.467,0.302-8.049-0.532c-2.809-0.836-5.467-2.354-7.669-4.557c-2.43-2.43-4.1-5.391-4.784-8.579l-11.694,11.769 h-0.076l-11.921,11.92l-62.947,62.947l-11.313,11.314l-35.383,35.461l-11.314,11.237l-20.122,20.121l-10.554,10.553l-3.568,3.568 l-11.01,11.011l-42.597,42.596l-14.351,14.352l-46.925,46.924l86.333,86.332c4.708,4.708,10.326,7.973,16.249,9.871 c14.047,4.557,30.068,1.214,41.154-9.871L459.76,269.098l0.152-0.228c0.151-0.152,0.38-0.53,0.456-0.91 c0.076-0.304,0.152-0.608,0.228-0.988c0.076-0.456,0.152-0.986,0.228-1.518c2.05-16.476-6.226-85.574-12.832-136.447v-0.076 c0.683-0.608,1.367-1.214,2.05-1.898c0.684-0.608,1.291-1.366,1.974-2.05c9.264-9.567,17.616-22.627,23.766-37.889 c0.076-0.076,0.152-0.152,0.152-0.228C483.222,69.097,486.488,50.799,485.197,35.309z M409.19,102.888 c6.378,6.303,7.062,16.172,2.05,23.309c-4.176-3.568-6.909-10.553-7.669-19.893c-0.228-2.354-0.228-4.859-0.228-7.365 C405.47,99.773,407.52,101.142,409.19,102.888z M416.024,149.28l-10.934,10.859l10.023-10.099l0.152-0.152l1.594-1.518l0.152-0.228 l5.695-5.619l-5.847,5.847v0.076L416.024,149.28z M422.706,142.523l-5.847,5.847v0.076l5.923-5.923H422.706z M422.782,142.447 v0.076h0.076v-0.076H422.782z"></path> </g> </g></svg>